<?xml version="1.0" encoding="UTF-8" standalone="no"?>
<!-- Created with Inkscape (http://www.inkscape.org/) -->

<svg
        xmlns:dc="http://purl.org/dc/elements/1.1/"
        xmlns:cc="http://creativecommons.org/ns#"
        xmlns:rdf="http://www.w3.org/1999/02/22-rdf-syntax-ns#"
        xmlns:svg="http://www.w3.org/2000/svg"
        xmlns="http://www.w3.org/2000/svg"
        xmlns:sodipodi="http://sodipodi.sourceforge.net/DTD/sodipodi-0.dtd"
        xmlns:inkscape="http://www.inkscape.org/namespaces/inkscape"
        width="210mm"
        height="297mm"
        viewBox="0 0 210 297"
        version="1.1"
        id="svg4570"
        inkscape:version="0.92.4 (5da689c313, 2019-01-14)"
        sodipodi:docname="drawing.svg">
    <defs
            id="defs4564" />
    <sodipodi:namedview
            id="base"
            pagecolor="#ffffff"
            bordercolor="#666666"
            borderopacity="1.0"
            inkscape:pageopacity="0.0"
            inkscape:pageshadow="2"
            inkscape:zoom="1.4"
            inkscape:cx="334.16852"
            inkscape:cy="754.55597"
            inkscape:document-units="mm"
            inkscape:current-layer="layer1"
            showgrid="false"
            inkscape:window-width="1920"
            inkscape:window-height="1001"
            inkscape:window-x="-9"
            inkscape:window-y="-9"
            inkscape:window-maximized="1" />
    <metadata
            id="metadata4567">
        <rdf:RDF>
            <cc:Work
                    rdf:about="">
                <dc:format>image/svg+xml</dc:format>
                <dc:type
                        rdf:resource="http://purl.org/dc/dcmitype/StillImage" />
                <dc:title></dc:title>
            </cc:Work>
        </rdf:RDF>
    </metadata>
    <g
            inkscape:label="Layer 1"
            inkscape:groupmode="layer"
            id="layer1">
        <rect
                style="fill:#000080;fill-opacity:1;stroke-width:0.26458332"
                id="rect4574"
                width="210.91072"
                height="91.470238"
                x="0"
                y="37.708332" />

        <ellipse
                style="fill:#ffffff;fill-opacity:1;stroke-width:0.26458332"
                id="path4578"
                cx="70.870537"
                cy="70.025299"
                rx="14.930058"
                ry="14.363094" />
        <rect
                style="fill:#ffffff;fill-opacity:1;stroke-width:0.26458332"
                id="rect4580"
                width="48.380955"
                height="10.961308"
                x="97.139885"
                y="63.221722" />
        <path
                style="fill:#ffffff;stroke:#000000;stroke-width:0.26458332px;stroke-linecap:butt;stroke-linejoin:miter;stroke-opacity:1"
                d="m 164.23065,55.284226 5.66965,-7.559524 24.75744,0.188987 5.85863,7.748513 v 28.915177 l -5.85863,5.858632 -23.8125,-0.377976 -6.23661,-6.803572 z"
                id="path4588"
                inkscape:connector-curvature="0" />
        <path
                style="fill:#ffffff;fill-opacity:1;stroke-width:0.71428573"
                d="m 367.16852,259.46372 v -20.35714 h 91.42857 91.42857 v 20.35714 20.35714 h -91.42857 -91.42857 z"
                id="path4596"
                inkscape:connector-curvature="0"
                transform="scale(0.26458333)" />
        <path
                style="fill:#ffffff;fill-opacity:1;stroke-width:0.71428573"
                d="m 254.1738,316.9377 c -31.90926,-7.84651 -50.04632,-40.22841 -39.19124,-69.97203 12.07685,-33.09136 52.82022,-46.4958 83.39781,-27.43762 11.836,7.37705 20.4326,19.02407 23.86494,32.33315 1.7493,6.78301 1.90431,17.8546 0.34416,24.58184 -3.72905,16.07935 -15.87965,30.432 -31.6777,37.41865 -10.32513,4.56627 -25.50791,5.83749 -36.73797,3.07601 z"
                id="path4598"
                inkscape:connector-curvature="0"
                transform="scale(0.26458333)" />
        <path
                style="fill:#ffffff;fill-opacity:1;stroke-width:0.71428573"
                d="m 29.311377,259.10658 v -79.28572 h 60.357143 60.35714 v 79.28572 79.28571 H 89.66852 29.311377 Z"
                id="path4600"
                inkscape:connector-curvature="0"
                transform="scale(0.26458333)" />
        <path
                style="fill:#ffffff;fill-opacity:1;stroke-width:0.71428573"
                d="m 29.311377,259.10658 v -79.28572 h 60.357143 60.35714 v 79.28572 79.28571 H 89.66852 29.311377 Z"
                id="path4602"
                inkscape:connector-curvature="0"
                transform="scale(0.26458333)" />
        <path
                style="fill:#ffffff;fill-opacity:1;stroke-width:0.71428573"
                d="m 29.597092,259.10658 v -79.28572 h 60 59.999998 v 79.28572 79.28571 h -59.999998 -60 z"
                id="path4604"
                inkscape:connector-curvature="0"
                transform="scale(0.26458333)" />
        <path
                style="fill:#ffffff;fill-opacity:1;stroke-width:0.71428573"
                d="M 255.31816,317.33218 C 227.9831,311.38466 208.55253,284.802 212.17919,258.3144 c 1.92769,-14.07907 8.82347,-26.28703 19.75559,-34.97439 32.02935,-25.45255 80.3075,-10.27538 90.27428,28.37946 1.7864,6.92832 1.9557,17.93106 0.38041,24.72357 -3.67041,15.82652 -15.55831,30.10018 -30.84,37.02923 -10.21723,4.63271 -25.45795,6.24747 -36.43131,3.85991 z"
                id="path4606"
                inkscape:connector-curvature="0"
                transform="scale(0.26458333)" />
        <path
                style="fill:#ffffff;fill-opacity:1;stroke-width:0.71428573"
                d="m 367.16852,259.46372 v -20.35714 h 91.42857 91.42857 v 20.35714 20.35714 h -91.42857 -91.42857 z"
                id="path4608"
                inkscape:connector-curvature="0"
                transform="scale(0.26458333)" />
        <path
                style="fill:#ffffff;fill-opacity:1;stroke-width:0.71428573"
                d="m 702.52566,340.49617 c -14.14285,-0.26476 -32.625,-0.53854 -41.07142,-0.6084 l -15.35715,-0.12702 -11.52885,-12.68827 -11.52886,-12.68826 -0.80132,-52.32947 c -0.44073,-28.7812 -0.55632,-52.74438 -0.25686,-53.2515 0.29945,-0.50713 5.03778,-6.9142 10.52962,-14.23793 l 9.98515,-13.31589 26.08628,0.0993 c 14.34745,0.0546 35.29724,0.29569 46.55509,0.53572 l 20.46882,0.43641 10.78118,14.26599 10.78118,14.26598 v 54.31409 54.31409 l -10.90123,10.88421 -10.90124,10.88421 -3.56305,-0.13595 c -1.95968,-0.0748 -15.13448,-0.35256 -29.27734,-0.61731 z"
                id="path4610"
                inkscape:connector-curvature="0"
                transform="scale(0.26458333)" />
        <rect
                style="fill:#ffffff;fill-opacity:1;stroke-width:0.26458332"
                id="Garbage_Slot"
                width="31.938988"
                height="42.144348"
                x="7.7485118"
                y="47.535713"
                inkscape:label="#rect4576" />
        <path
                style="fill:#ffffff;fill-opacity:1;stroke-width:0.71428573"
                d="m 255.66852,317.38133 c -34.65143,-7.96325 -53.33251,-43.71939 -38.92809,-74.50951 7.28079,-15.563 20.0874,-25.91695 37.94309,-30.67639 6.32292,-1.68538 19.99218,-1.64461 26.69929,0.0796 26.57493,6.8318 44.03097,29.93469 42.29187,55.97285 -1.48591,22.2473 -16.67295,40.7349 -39.43473,48.00494 -6.37471,2.03606 -21.94596,2.65108 -28.57143,1.12848 z"
                id="Coffee_Slot"
                inkscape:connector-curvature="0"
                transform="scale(0.26458333)"
                inkscape:label="#path4590" />
        <path
                style="fill:#ffffff;fill-opacity:1;stroke-width:0.71428573"
                d="m 367.16852,259.46372 v -20.35714 h 91.42857 91.42857 v 20.35714 20.35714 h -91.42857 -91.42857 z"
                id="Paper_Slot"
                inkscape:connector-curvature="0"
                transform="scale(0.26458333)"
                inkscape:label="#path4592" />
        <path
                style="fill:#ffffff;fill-opacity:1;stroke-width:0.71428573"
                d="m 705.38281,340.49617 c -14.14286,-0.26476 -33.26786,-0.55226 -42.5,-0.63889 l -16.78572,-0.15752 -11.52017,-12.63967 -11.52017,-12.63967 -0.44977,-32.83549 c -0.24738,-18.05953 -0.63656,-41.67478 -0.86485,-52.47835 l -0.41508,-19.64286 10.5876,-14.10714 10.5876,-14.10715 h 15.43022 c 8.48662,0 29.42957,0.21254 46.53988,0.47231 l 31.10966,0.4723 10.79325,14.4229 10.79326,14.42289 v 54.22059 54.22059 l -10.90123,10.88421 c -9.53929,9.52439 -11.16791,10.86723 -13.03572,10.74826 -1.17396,-0.0748 -13.70591,-0.35256 -27.84876,-0.61731 z"
                id="Container_Slot"
                inkscape:connector-curvature="0"
                transform="scale(0.26458333)"
                inkscape:label="#path4594" />
    </g>
</svg>
